<mxfile host="app.diagrams.net" agent="Mozilla/5.0 (X11; Linux x86_64) AppleWebKit/537.36 (KHTML, like Gecko) Chrome/135.0.0.0 Safari/537.36" version="26.2.12">
  <diagram name="User Point of view" id="pW7hHVVPVdVcbDhEcFnb">
    <mxGraphModel dx="2497" dy="2483" grid="1" gridSize="10" guides="1" tooltips="1" connect="1" arrows="1" fold="1" page="1" pageScale="1" pageWidth="827" pageHeight="1169" math="0" shadow="0">
      <root>
        <mxCell id="0" />
        <mxCell id="1" parent="0" />
        <mxCell id="CquVaC-Cp741IVRutNJS-5" value="" style="rounded=0;whiteSpace=wrap;html=1;fillColor=#f5f5f5;strokeColor=#666666;fontColor=#333333;" vertex="1" parent="1">
          <mxGeometry x="640" y="-250" width="470" height="1200" as="geometry" />
        </mxCell>
        <mxCell id="CquVaC-Cp741IVRutNJS-3" value="" style="rounded=0;whiteSpace=wrap;html=1;fillColor=#f5f5f5;strokeColor=#666666;fontColor=#333333;" vertex="1" parent="1">
          <mxGeometry x="40" y="-250" width="470" height="1200" as="geometry" />
        </mxCell>
        <mxCell id="8NdC7l0lDa2l5-dlI2pK-6" style="edgeStyle=orthogonalEdgeStyle;rounded=0;orthogonalLoop=1;jettySize=auto;html=1;" parent="1" source="8NdC7l0lDa2l5-dlI2pK-1" target="8NdC7l0lDa2l5-dlI2pK-2" edge="1">
          <mxGeometry relative="1" as="geometry" />
        </mxCell>
        <mxCell id="8NdC7l0lDa2l5-dlI2pK-1" value="NGNIX (80)" style="rounded=0;whiteSpace=wrap;html=1;fillColor=#dae8fc;strokeColor=#6c8ebf;" parent="1" vertex="1">
          <mxGeometry x="280" y="40" width="120" height="60" as="geometry" />
        </mxCell>
        <mxCell id="8NdC7l0lDa2l5-dlI2pK-12" style="edgeStyle=orthogonalEdgeStyle;rounded=0;orthogonalLoop=1;jettySize=auto;html=1;entryX=0.5;entryY=0;entryDx=0;entryDy=0;" parent="1" source="8NdC7l0lDa2l5-dlI2pK-2" target="8NdC7l0lDa2l5-dlI2pK-10" edge="1">
          <mxGeometry relative="1" as="geometry" />
        </mxCell>
        <mxCell id="8NdC7l0lDa2l5-dlI2pK-2" value="CWebFirmware(5000)" style="rounded=0;whiteSpace=wrap;html=1;fillColor=#dae8fc;strokeColor=#6c8ebf;" parent="1" vertex="1">
          <mxGeometry x="280" y="220" width="120" height="60" as="geometry" />
        </mxCell>
        <mxCell id="8NdC7l0lDa2l5-dlI2pK-5" style="edgeStyle=orthogonalEdgeStyle;rounded=0;orthogonalLoop=1;jettySize=auto;html=1;entryX=0.5;entryY=0;entryDx=0;entryDy=0;" parent="1" source="8NdC7l0lDa2l5-dlI2pK-4" target="8NdC7l0lDa2l5-dlI2pK-1" edge="1">
          <mxGeometry relative="1" as="geometry" />
        </mxCell>
        <mxCell id="8NdC7l0lDa2l5-dlI2pK-4" value="User Requisition" style="rounded=1;whiteSpace=wrap;html=1;fillColor=#dae8fc;strokeColor=#6c8ebf;" parent="1" vertex="1">
          <mxGeometry x="280" y="-140" width="120" height="60" as="geometry" />
        </mxCell>
        <mxCell id="8NdC7l0lDa2l5-dlI2pK-11" style="edgeStyle=orthogonalEdgeStyle;rounded=0;orthogonalLoop=1;jettySize=auto;html=1;" parent="1" source="8NdC7l0lDa2l5-dlI2pK-9" target="8NdC7l0lDa2l5-dlI2pK-10" edge="1">
          <mxGeometry relative="1" as="geometry" />
        </mxCell>
        <mxCell id="8NdC7l0lDa2l5-dlI2pK-9" value="lib.so" style="whiteSpace=wrap;html=1;shape=mxgraph.basic.document;fillColor=#e1d5e7;strokeColor=#9673a6;" parent="1" vertex="1">
          <mxGeometry x="70" y="330" width="100" height="100" as="geometry" />
        </mxCell>
        <mxCell id="8NdC7l0lDa2l5-dlI2pK-14" style="edgeStyle=orthogonalEdgeStyle;rounded=0;orthogonalLoop=1;jettySize=auto;html=1;entryX=0.5;entryY=0;entryDx=0;entryDy=0;" parent="1" source="8NdC7l0lDa2l5-dlI2pK-10" target="8NdC7l0lDa2l5-dlI2pK-13" edge="1">
          <mxGeometry relative="1" as="geometry" />
        </mxCell>
        <mxCell id="8NdC7l0lDa2l5-dlI2pK-10" value="Loads the .so" style="rounded=0;whiteSpace=wrap;html=1;fillColor=#e1d5e7;strokeColor=#9673a6;" parent="1" vertex="1">
          <mxGeometry x="280" y="350" width="120" height="60" as="geometry" />
        </mxCell>
        <mxCell id="8NdC7l0lDa2l5-dlI2pK-18" style="edgeStyle=orthogonalEdgeStyle;rounded=0;orthogonalLoop=1;jettySize=auto;html=1;" parent="1" source="8NdC7l0lDa2l5-dlI2pK-13" target="8NdC7l0lDa2l5-dlI2pK-17" edge="1">
          <mxGeometry relative="1" as="geometry" />
        </mxCell>
        <mxCell id="8NdC7l0lDa2l5-dlI2pK-20" style="edgeStyle=orthogonalEdgeStyle;rounded=0;orthogonalLoop=1;jettySize=auto;html=1;" parent="1" source="8NdC7l0lDa2l5-dlI2pK-13" target="8NdC7l0lDa2l5-dlI2pK-19" edge="1">
          <mxGeometry relative="1" as="geometry" />
        </mxCell>
        <mxCell id="8NdC7l0lDa2l5-dlI2pK-13" value="Fail ?" style="rhombus;whiteSpace=wrap;html=1;fillColor=#fff2cc;strokeColor=#d6b656;" parent="1" vertex="1">
          <mxGeometry x="300" y="505" width="80" height="80" as="geometry" />
        </mxCell>
        <mxCell id="8NdC7l0lDa2l5-dlI2pK-17" value="500 Error" style="ellipse;whiteSpace=wrap;html=1;fillColor=#f8cecc;strokeColor=#b85450;" parent="1" vertex="1">
          <mxGeometry x="80" y="505" width="100" height="80" as="geometry" />
        </mxCell>
        <mxCell id="8NdC7l0lDa2l5-dlI2pK-22" style="edgeStyle=orthogonalEdgeStyle;rounded=0;orthogonalLoop=1;jettySize=auto;html=1;" parent="1" source="8NdC7l0lDa2l5-dlI2pK-19" target="8NdC7l0lDa2l5-dlI2pK-21" edge="1">
          <mxGeometry relative="1" as="geometry" />
        </mxCell>
        <mxCell id="8NdC7l0lDa2l5-dlI2pK-19" value="Calls the callback function inside lib.so" style="rounded=0;whiteSpace=wrap;html=1;fillColor=#dae8fc;strokeColor=#6c8ebf;" parent="1" vertex="1">
          <mxGeometry x="280" y="690" width="120" height="60" as="geometry" />
        </mxCell>
        <mxCell id="8NdC7l0lDa2l5-dlI2pK-21" value="Send the callback to user" style="ellipse;whiteSpace=wrap;html=1;aspect=fixed;fillColor=#6a00ff;fontColor=#ffffff;strokeColor=#3700CC;" parent="1" vertex="1">
          <mxGeometry x="300" y="860" width="80" height="80" as="geometry" />
        </mxCell>
        <mxCell id="je4MbTYOw-YWx8tlqvyY-1" style="edgeStyle=orthogonalEdgeStyle;rounded=0;orthogonalLoop=1;jettySize=auto;html=1;" edge="1" parent="1" source="je4MbTYOw-YWx8tlqvyY-2" target="je4MbTYOw-YWx8tlqvyY-4">
          <mxGeometry relative="1" as="geometry" />
        </mxCell>
        <mxCell id="je4MbTYOw-YWx8tlqvyY-2" value="Devops calls to&amp;nbsp; upload lib.so" style="rounded=1;whiteSpace=wrap;html=1;fillColor=#dae8fc;strokeColor=#6c8ebf;" vertex="1" parent="1">
          <mxGeometry x="770" y="-130" width="120" height="60" as="geometry" />
        </mxCell>
        <mxCell id="je4MbTYOw-YWx8tlqvyY-3" style="edgeStyle=orthogonalEdgeStyle;rounded=0;orthogonalLoop=1;jettySize=auto;html=1;entryX=0.5;entryY=0;entryDx=0;entryDy=0;" edge="1" parent="1" source="je4MbTYOw-YWx8tlqvyY-4" target="je4MbTYOw-YWx8tlqvyY-6">
          <mxGeometry relative="1" as="geometry" />
        </mxCell>
        <mxCell id="je4MbTYOw-YWx8tlqvyY-4" value="NGNIX (80)" style="rounded=0;whiteSpace=wrap;html=1;fillColor=#dae8fc;strokeColor=#6c8ebf;" vertex="1" parent="1">
          <mxGeometry x="770" y="40" width="120" height="60" as="geometry" />
        </mxCell>
        <mxCell id="je4MbTYOw-YWx8tlqvyY-5" style="edgeStyle=orthogonalEdgeStyle;rounded=0;orthogonalLoop=1;jettySize=auto;html=1;" edge="1" parent="1" source="je4MbTYOw-YWx8tlqvyY-6" target="je4MbTYOw-YWx8tlqvyY-8">
          <mxGeometry relative="1" as="geometry" />
        </mxCell>
        <mxCell id="je4MbTYOw-YWx8tlqvyY-6" value="CWebFirmware(5000)" style="rounded=0;whiteSpace=wrap;html=1;fillColor=#dae8fc;strokeColor=#6c8ebf;" vertex="1" parent="1">
          <mxGeometry x="770" y="210" width="120" height="60" as="geometry" />
        </mxCell>
        <mxCell id="je4MbTYOw-YWx8tlqvyY-7" style="edgeStyle=orthogonalEdgeStyle;rounded=0;orthogonalLoop=1;jettySize=auto;html=1;entryX=0.5;entryY=0;entryDx=0;entryDy=0;" edge="1" parent="1" source="je4MbTYOw-YWx8tlqvyY-8" target="je4MbTYOw-YWx8tlqvyY-9">
          <mxGeometry relative="1" as="geometry" />
        </mxCell>
        <mxCell id="je4MbTYOw-YWx8tlqvyY-8" value="Replaces the lib.so" style="rounded=0;whiteSpace=wrap;html=1;fillColor=#d5e8d4;strokeColor=#82b366;" vertex="1" parent="1">
          <mxGeometry x="770" y="370" width="120" height="60" as="geometry" />
        </mxCell>
        <mxCell id="je4MbTYOw-YWx8tlqvyY-9" value="Send the 200 menssage" style="ellipse;whiteSpace=wrap;html=1;aspect=fixed;fillColor=#6a00ff;fontColor=#ffffff;strokeColor=#3700CC;" vertex="1" parent="1">
          <mxGeometry x="790" y="515" width="80" height="80" as="geometry" />
        </mxCell>
        <mxCell id="CquVaC-Cp741IVRutNJS-4" value="&lt;b&gt;&lt;font style=&quot;font-size: 50px;&quot;&gt;Operation&lt;/font&gt;&lt;/b&gt;" style="text;html=1;align=center;verticalAlign=middle;whiteSpace=wrap;rounded=0;" vertex="1" parent="1">
          <mxGeometry x="245" y="-220" width="60" height="30" as="geometry" />
        </mxCell>
        <mxCell id="CquVaC-Cp741IVRutNJS-6" value="&lt;b&gt;&lt;font style=&quot;font-size: 50px;&quot;&gt;Update&amp;nbsp;&lt;/font&gt;&lt;/b&gt;&lt;div&gt;&lt;b&gt;&lt;font style=&quot;font-size: 50px;&quot;&gt;&lt;br&gt;&lt;/font&gt;&lt;/b&gt;&lt;/div&gt;" style="text;html=1;align=center;verticalAlign=middle;whiteSpace=wrap;rounded=0;" vertex="1" parent="1">
          <mxGeometry x="810" y="-190" width="60" height="30" as="geometry" />
        </mxCell>
        <mxCell id="CquVaC-Cp741IVRutNJS-7" style="edgeStyle=orthogonalEdgeStyle;rounded=0;orthogonalLoop=1;jettySize=auto;html=1;exitX=0;exitY=0;exitDx=0;exitDy=0;entryX=0.25;entryY=1;entryDx=0;entryDy=0;" edge="1" parent="1" source="CquVaC-Cp741IVRutNJS-6" target="CquVaC-Cp741IVRutNJS-6">
          <mxGeometry relative="1" as="geometry" />
        </mxCell>
        <mxCell id="CquVaC-Cp741IVRutNJS-8" style="edgeStyle=orthogonalEdgeStyle;rounded=0;orthogonalLoop=1;jettySize=auto;html=1;exitX=0.5;exitY=1;exitDx=0;exitDy=0;" edge="1" parent="1" source="CquVaC-Cp741IVRutNJS-3" target="CquVaC-Cp741IVRutNJS-3">
          <mxGeometry relative="1" as="geometry" />
        </mxCell>
      </root>
    </mxGraphModel>
  </diagram>
</mxfile>
